<svg xmlns="http://www.w3.org/2000/svg" viewBox="0 0 570.7 140.7"><path d="M173.4,84.3c-1.9,9.9-17.3,20.8-34.9,22.9c-9.2,1.1-18.2,2.1-27.9,1.7c-15.8-0.7-28.2-3.8-28.2-3.8
	c0,1.5,0.1,3,0.3,4.4c2.1,15.6,15.4,16.5,28.1,16.9c12.8,0.4,24.2-3.2,24.2-3.2l0.5,11.6c0,0-9,4.8-24.9,5.7
	c-8.8,0.5-19.7-0.2-32.4-3.6c-27.6-7.2-32.3-36.7-33.1-66.5C44.9,61.5,45,53.2,45,46.2C45,15.7,65,6.7,65,6.7
	C75.1,2.1,92.4,0.1,110.4,0h0.4c18,0.1,35.3,2.1,45.4,6.7c0,0,20,8.9,20,39.5C176.2,46.2,176.5,68.7,173.4,84.3" fill="#3088d4"></path><path d="M72.7,38.8c0-4.4,3.6-8,8-8c4.4,0,8,3.6,8,8s-3.6,8-8,8C76.3,46.8,72.7,43.2,72.7,38.8 M188.1,48.6v37h-14.6
	v-36c0-7.6-3.2-11.4-9.5-11.4c-7,0-10.6,4.6-10.6,13.6v19.6h-14.6V51.8c0-9-3.5-13.6-10.6-13.6c-6.4,0-9.5,3.8-9.5,11.4v35.9H104
	v-37c0-7.6,1.9-13.6,5.8-18c4-4.4,9.2-6.7,15.7-6.7c7.5,0,13.2,2.9,16.9,8.6l3.6,6.1l3.6-6.1c3.8-5.8,9.4-8.6,16.9-8.6
	c6.5,0,11.7,2.3,15.7,6.7C186.2,35,188.1,41,188.1,48.6 M364.2,68c3-3.2,4.5-7.2,4.5-12.1s-1.5-8.9-4.5-11.9
	c-2.9-3.2-6.6-4.7-11.1-4.7s-8.2,1.5-11.1,4.7c-2.9,3.1-4.4,7.1-4.4,11.9s1.5,8.9,4.4,12.1c2.9,3.1,6.6,4.6,11.1,4.6
	S361.3,71,364.2,68 M368.7,26.3h14.4v59.1h-14.4v-7c-4.4,5.8-10.4,8.6-18.2,8.6c-7.5,0-13.9-3-19.2-9c-5.3-6-7.9-13.5-7.9-22.2
	c0-8.6,2.7-16.1,7.9-22.1c5.4-6,11.8-9.1,19.2-9.1c7.8,0,13.9,2.8,18.2,8.6C368.7,33.3,368.7,26.3,368.7,26.3z M234.4,66.6
	c2.9-3.1,4.4-7,4.4-11.7s-1.5-8.6-4.4-11.7s-6.5-4.6-10.9-4.6s-7.9,1.5-10.9,4.6c-2.8,3.2-4.3,7.1-4.3,11.7s1.5,8.5,4.3,11.7
	c2.9,3.1,6.5,4.6,10.9,4.6S231.5,69.7,234.4,66.6 M202.5,77.1c-5.7-6-8.5-13.4-8.5-22.2s2.8-16.1,8.5-22.1s12.8-9.1,21-9.1
	c8.3,0,15.3,3.1,21,9.1s8.6,13.5,8.6,22.1c0,8.8-2.9,16.2-8.6,22.2c-5.7,6-12.6,9-21,9C215.2,86.1,208.2,83.1,202.5,77.1
	 M433.5,66.9c2.9-3.2,4.4-7.2,4.4-12.1c0-4.8-1.5-8.9-4.4-11.9c-2.9-3.2-6.6-4.7-11.1-4.7s-8.2,1.5-11.2,4.7
	c-2.9,3.1-4.4,7.1-4.4,11.9s1.5,8.9,4.4,12.1c3,3.1,6.8,4.6,11.2,4.6C426.9,71.5,430.6,70,433.5,66.9 M437.9,1.7h14.4v82.8h-14.4v-7
	c-4.3,5.8-10.3,8.6-18.1,8.6c-7.5,0-14-3-19.4-9c-5.3-6-7.9-13.5-7.9-22.2c0-8.6,2.7-16.1,7.9-22.1c5.4-6,11.9-9.1,19.4-9.1
	c7.8,0,13.9,2.8,18.1,8.6C437.9,32.3,437.9,1.7,437.9,1.7z M503,66.6c2.9-3.1,4.4-7,4.4-11.7s-1.5-8.6-4.4-11.7s-6.5-4.6-10.9-4.6
	s-7.9,1.5-10.9,4.6c-2.8,3.2-4.3,7.1-4.3,11.7s1.5,8.5,4.3,11.7c2.9,3.1,6.5,4.6,10.9,4.6S500.1,69.7,503,66.6 M471.1,77.1
	c-5.7-6-8.5-13.4-8.5-22.2s2.8-16.1,8.5-22.1s12.8-9.1,21-9.1c8.3,0,15.3,3.1,21,9.1c5.7,6,8.6,13.5,8.6,22.1
	c0,8.8-2.9,16.2-8.6,22.2c-5.7,6-12.6,9-21,9C483.8,86.1,476.8,83.1,471.1,77.1 M313.6,48.1v36.3h-14.4V50c0-3.9-1-6.9-3-9.1
	c-1.9-2-4.6-3.1-8.1-3.1c-8.2,0-12.3,4.8-12.3,14.7v31.9h-14.4V25.3h14.4v6.6c3.5-5.6,9-8.3,16.7-8.3c6.2,0,11.2,2.1,15.1,6.5
	C311.6,34.5,313.6,40.4,313.6,48.1" fill="#fff"></path></svg>