<?xml version="1.0" standalone="no"?>
<!DOCTYPE svg PUBLIC "-//W3C//DTD SVG 20010904//EN"
 "http://www.w3.org/TR/2001/REC-SVG-20010904/DTD/svg10.dtd">
<svg version="1.0" xmlns="http://www.w3.org/2000/svg"
 width="192.000000pt" height="192.000000pt" viewBox="0 0 192.000000 192.000000"
 preserveAspectRatio="xMidYMid meet">
<metadata>
Created by potrace 1.14, written by Peter Selinger 2001-2017
</metadata>
<g transform="translate(0.000000,192.000000) scale(0.100000,-0.100000)"
fill="#000000" stroke="none">
<path d="M181 1813 c-18 -9 -45 -34 -60 -57 l-26 -40 -3 -723 c-1 -398 1 -723
5 -723 5 0 68 60 141 133 111 111 132 137 132 163 0 22 11 41 45 74 26 26 45
53 45 66 0 14 37 62 99 131 145 158 193 193 316 227 188 53 176 45 351 218 89
87 170 158 180 158 23 0 364 338 358 355 -13 33 -49 35 -802 35 -674 0 -750
-2 -781 -17z"/>
<path d="M1821 1674 c0 -11 3 -14 6 -6 3 7 2 16 -1 19 -3 4 -6 -2 -5 -13z"/>
<path d="M1752 1577 c-60 -61 -62 -64 -62 -115 l0 -52 53 0 c78 0 87 14 87
128 0 50 -4 93 -8 96 -5 3 -36 -23 -70 -57z"/>
<path d="M1322 1107 c-79 -79 -82 -84 -82 -129 l0 -46 45 -4 c45 -3 46 -3 130
82 83 83 85 87 85 133 l0 47 -48 0 c-46 0 -50 -2 -130 -83z"/>
<path d="M1648 1015 c-198 -202 -225 -248 -239 -394 -10 -108 -37 -182 -95
-261 -80 -108 -201 -180 -345 -203 -91 -14 -99 -10 -99 56 l0 54 66 6 c95 9
173 48 238 118 71 77 98 146 94 243 -4 94 -21 87 -29 -11 -8 -95 -36 -161 -97
-221 -57 -58 -120 -84 -212 -91 -65 -5 -75 -9 -73 -24 0 -10 -4 -16 -10 -14
-7 3 -36 15 -65 28 -48 20 -54 21 -65 6 -11 -15 -26 -11 -156 35 l-143 51
-131 -131 c-126 -126 -131 -132 -114 -149 17 -17 67 -18 777 -21 844 -3 793
-7 847 65 l28 36 3 490 c1 270 -1 493 -5 496 -5 4 -83 -70 -175 -164z"/>
<path d="M798 996 c-61 -22 -122 -62 -166 -110 -48 -52 -50 -61 -21 -76 18
-10 25 -6 59 32 40 46 114 91 168 103 34 7 35 8 26 43 -7 25 -15 26 -66 8z"/>
<path d="M987 993 c-15 -14 -7 -53 11 -53 48 0 166 -95 194 -156 13 -28 18
-29 42 -11 26 19 14 47 -49 115 -67 72 -174 129 -198 105z"/>
<path d="M813 922 c-67 -24 -118 -64 -154 -120 -130 -206 14 -469 256 -466 84
1 149 28 208 87 149 149 101 404 -92 490 -64 28 -154 32 -218 9z m225 -38 c56
-28 91 -63 125 -128 31 -59 31 -184 0 -242 -94 -178 -325 -208 -460 -61 -123
134 -79 354 88 435 67 32 178 30 247 -4z"/>
<path d="M820 854 c-86 -37 -143 -125 -143 -219 0 -200 238 -310 384 -178 58
53 83 106 83 178 0 95 -52 177 -139 216 -49 23 -137 24 -185 3z"/>
<path d="M553 634 c-17 -45 33 -188 83 -235 40 -38 46 -11 9 42 -36 53 -65
133 -65 181 0 30 -17 38 -27 12z"/>
<path d="M91 244 c0 -11 3 -14 6 -6 3 7 2 16 -1 19 -3 4 -6 -2 -5 -13z"/>
</g>
</svg>
